<mxfile host="app.diagrams.net" agent="Mozilla/5.0 (Macintosh; Intel Mac OS X 10_15_7) AppleWebKit/537.36 (KHTML, like Gecko) Chrome/137.0.0.0 Safari/537.36 Edg/137.0.0.0" version="26.2.12">
  <diagram name="Page-1" id="6133507b-19e7-1e82-6fc7-422aa6c4b21f">
    <mxGraphModel dx="1403" dy="690" grid="1" gridSize="10" guides="1" tooltips="1" connect="1" arrows="1" fold="1" page="1" pageScale="1" pageWidth="1100" pageHeight="850" background="none" math="0" shadow="0" adaptiveColors="none">
      <root>
        <mxCell id="0" />
        <mxCell id="1" parent="0" />
        <mxCell id="78961159f06e98e8-17" value="Input Files" style="swimlane;html=1;fontStyle=1;align=center;verticalAlign=top;childLayout=stackLayout;horizontal=1;startSize=20;horizontalStack=0;resizeParent=1;resizeLast=0;collapsible=1;marginBottom=0;swimlaneFillColor=#ffffff;rounded=0;shadow=0;comic=0;labelBackgroundColor=none;strokeWidth=1;fillColor=none;fontFamily=Verdana;fontSize=12" parent="1" vertex="1">
          <mxGeometry x="40" y="280" width="140" height="40" as="geometry">
            <mxRectangle x="40" y="260" width="100" height="30" as="alternateBounds" />
          </mxGeometry>
        </mxCell>
        <mxCell id="78961159f06e98e8-23" value="Account Request Json" style="text;html=1;strokeColor=none;fillColor=none;align=left;verticalAlign=top;spacingLeft=4;spacingRight=4;whiteSpace=wrap;overflow=hidden;rotatable=0;points=[[0,0.5],[1,0.5]];portConstraint=eastwest;" parent="78961159f06e98e8-17" vertex="1">
          <mxGeometry y="20" width="140" height="20" as="geometry" />
        </mxCell>
        <mxCell id="116JnGDr8hpLdbibd_fv-1" value="" style="endArrow=classic;html=1;rounded=0;exitX=1.003;exitY=-0.01;exitDx=0;exitDy=0;exitPerimeter=0;entryX=0;entryY=0.5;entryDx=0;entryDy=0;" edge="1" parent="1" source="78961159f06e98e8-23" target="7vYXZGgla3i-7IKprP2S-1">
          <mxGeometry width="50" height="50" relative="1" as="geometry">
            <mxPoint x="175" y="284.04" as="sourcePoint" />
            <mxPoint x="240" y="300" as="targetPoint" />
          </mxGeometry>
        </mxCell>
        <mxCell id="7vYXZGgla3i-7IKprP2S-20" style="edgeStyle=orthogonalEdgeStyle;rounded=0;orthogonalLoop=1;jettySize=auto;html=1;entryX=0;entryY=0.5;entryDx=0;entryDy=0;" edge="1" parent="1" source="7vYXZGgla3i-7IKprP2S-1" target="7vYXZGgla3i-7IKprP2S-19">
          <mxGeometry relative="1" as="geometry" />
        </mxCell>
        <mxCell id="7vYXZGgla3i-7IKprP2S-1" value="&lt;font style=&quot;font-size: 10px;&quot;&gt;OU exist?&lt;/font&gt;" style="rhombus;whiteSpace=wrap;html=1;" vertex="1" parent="1">
          <mxGeometry x="250" y="270" width="110" height="60" as="geometry" />
        </mxCell>
        <mxCell id="7vYXZGgla3i-7IKprP2S-2" value="&lt;font style=&quot;font-size: 10px;&quot;&gt;Add OU to org-config and ctrls in Global-config&lt;/font&gt;" style="whiteSpace=wrap;html=1;" vertex="1" parent="1">
          <mxGeometry x="296" y="160" width="174" height="30" as="geometry" />
        </mxCell>
        <mxCell id="7vYXZGgla3i-7IKprP2S-6" value="&lt;font style=&quot;font-size: 10px;&quot;&gt;Notify Customer of Duplicate&lt;/font&gt;" style="whiteSpace=wrap;html=1;" vertex="1" parent="1">
          <mxGeometry x="406.25" y="380" width="117.5" height="30" as="geometry" />
        </mxCell>
        <mxCell id="7vYXZGgla3i-7IKprP2S-7" value="" style="whiteSpace=wrap;html=1;" vertex="1" parent="1">
          <mxGeometry x="580" y="280" width="130" height="40" as="geometry" />
        </mxCell>
        <mxCell id="7vYXZGgla3i-7IKprP2S-8" value="" style="whiteSpace=wrap;html=1;" vertex="1" parent="1">
          <mxGeometry x="790" y="145" width="120" height="60" as="geometry" />
        </mxCell>
        <mxCell id="7vYXZGgla3i-7IKprP2S-15" value="No" style="text;strokeColor=none;align=center;fillColor=none;html=1;verticalAlign=middle;whiteSpace=wrap;rounded=0;" vertex="1" parent="1">
          <mxGeometry x="265" y="220" width="60" height="30" as="geometry" />
        </mxCell>
        <mxCell id="7vYXZGgla3i-7IKprP2S-16" value="1st Python Script &amp;amp; LZA Run" style="text;strokeColor=none;align=center;fillColor=none;html=1;verticalAlign=middle;whiteSpace=wrap;rounded=0;" vertex="1" parent="1">
          <mxGeometry x="305" y="130" width="160" height="30" as="geometry" />
        </mxCell>
        <mxCell id="7vYXZGgla3i-7IKprP2S-25" style="edgeStyle=orthogonalEdgeStyle;rounded=0;orthogonalLoop=1;jettySize=auto;html=1;exitX=0.5;exitY=1;exitDx=0;exitDy=0;entryX=0.5;entryY=0;entryDx=0;entryDy=0;" edge="1" parent="1" source="7vYXZGgla3i-7IKprP2S-19" target="7vYXZGgla3i-7IKprP2S-6">
          <mxGeometry relative="1" as="geometry" />
        </mxCell>
        <mxCell id="7vYXZGgla3i-7IKprP2S-27" value="" style="edgeStyle=orthogonalEdgeStyle;rounded=0;orthogonalLoop=1;jettySize=auto;html=1;" edge="1" parent="1" source="7vYXZGgla3i-7IKprP2S-19" target="7vYXZGgla3i-7IKprP2S-7">
          <mxGeometry relative="1" as="geometry" />
        </mxCell>
        <mxCell id="7vYXZGgla3i-7IKprP2S-19" value="&lt;font style=&quot;font-size: 10px;&quot;&gt;Account exist?&lt;/font&gt;" style="rhombus;whiteSpace=wrap;html=1;" vertex="1" parent="1">
          <mxGeometry x="410" y="270" width="110" height="60" as="geometry" />
        </mxCell>
        <mxCell id="7vYXZGgla3i-7IKprP2S-22" style="edgeStyle=orthogonalEdgeStyle;rounded=0;orthogonalLoop=1;jettySize=auto;html=1;exitX=0.969;exitY=1.05;exitDx=0;exitDy=0;entryX=0.5;entryY=0;entryDx=0;entryDy=0;exitPerimeter=0;" edge="1" parent="1" source="7vYXZGgla3i-7IKprP2S-2" target="7vYXZGgla3i-7IKprP2S-19">
          <mxGeometry relative="1" as="geometry" />
        </mxCell>
        <mxCell id="7vYXZGgla3i-7IKprP2S-23" style="edgeStyle=orthogonalEdgeStyle;rounded=0;orthogonalLoop=1;jettySize=auto;html=1;entryX=0.053;entryY=1.019;entryDx=0;entryDy=0;entryPerimeter=0;" edge="1" parent="1" source="7vYXZGgla3i-7IKprP2S-1" target="7vYXZGgla3i-7IKprP2S-2">
          <mxGeometry relative="1" as="geometry" />
        </mxCell>
        <mxCell id="7vYXZGgla3i-7IKprP2S-24" value="Yes" style="text;strokeColor=none;align=center;fillColor=none;html=1;verticalAlign=middle;whiteSpace=wrap;rounded=0;" vertex="1" parent="1">
          <mxGeometry x="350" y="270" width="60" height="30" as="geometry" />
        </mxCell>
        <mxCell id="7vYXZGgla3i-7IKprP2S-26" value="Yes" style="text;strokeColor=none;align=center;fillColor=none;html=1;verticalAlign=middle;whiteSpace=wrap;rounded=0;" vertex="1" parent="1">
          <mxGeometry x="390" y="340" width="60" height="30" as="geometry" />
        </mxCell>
        <mxCell id="7vYXZGgla3i-7IKprP2S-28" value="No" style="text;strokeColor=none;align=center;fillColor=none;html=1;verticalAlign=middle;whiteSpace=wrap;rounded=0;" vertex="1" parent="1">
          <mxGeometry x="510" y="270" width="60" height="30" as="geometry" />
        </mxCell>
      </root>
    </mxGraphModel>
  </diagram>
</mxfile>
